<svg xmlns="http://www.w3.org/2000/svg" viewBox="0 0 219.75 136.19"><defs><style>.cls-1{fill:#053f7a;}.cls-1,.cls-2,.cls-3{fill-rule:evenodd;}.cls-2{fill:#68bf58;}.cls-3{fill:#fcbb20;}</style></defs><g id="Layer_2" data-name="Layer 2"><g id="Layer_1-2" data-name="Layer 1"><path class="cls-1" d="M25.45,42.28,0,67.82,25.45,93.28c14,14,25.73,25.46,26.08,25.46.53,0,30.92-30.12,46.86-46.45l4.47-4.58L77.39,42.22c-14-14-25.69-25.48-26-25.48s-12,11.49-26,25.54M34.65,52,19.41,67.26,35.17,83,50.93,98.74,66.17,83.48c8.38-8.4,15.24-15.56,15.24-15.92,0-.83-30.08-30.82-30.91-30.82-.34,0-7.47,6.87-15.85,15.26"/></g><g id="Layer_3" data-name="Layer 3"><path class="cls-1" d="M142.48,42.42,117.11,68l25.37,25.38c14,14,25.7,25.38,26.11,25.38.66,0,44.12-43.19,49.22-48.9l1.94-2.19L194.31,42.18c-14-14-25.67-25.42-25.94-25.38s-11.93,11.57-25.89,25.62M151.8,52,136.38,67.22,152.11,83l15.73,15.75L183.1,83.49c8.39-8.39,15.26-15.58,15.26-16,0-.86-29.75-30.78-30.6-30.78-.3,0-7.48,6.87-16,15.25"/></g><g id="Layer_4" data-name="Layer 4"><path class="cls-2" d="M51.6,58,40.92,68.71l33.75,33.74c18.56,18.56,34.2,33.74,34.76,33.74s9.44-8.45,19.75-18.77l18.76-18.78-5-5-5-5-14.11,14.11L109.65,117,87,94.24C74.59,81.74,63.77,70.75,63,69.8c-1.27-1.53-.86-2.27,3.88-7.08l5.3-5.37-5-5-5-5L51.6,58"/></g><g id="Layer_2-2" data-name="Layer 2"><path class="cls-3" d="M92.09,19l-19,19,5,5,5,5,14-14,14-14,24.25,24.26,24.26,24.27L154.08,74l-5.52,5.45,5,5,5,5,10.57-10.57,10.57-10.57L145.65,34.17C126.9,15.38,111.45,0,111.31,0s-8.78,8.54-19.22,19"/></g></g></svg>