<?xml version="1.0" encoding="utf-8"?>
<!-- Generator: Adobe Illustrator 25.1.0, SVG Export Plug-In . SVG Version: 6.00 Build 0)  -->
<svg version="1.1" xmlns="http://www.w3.org/2000/svg" xmlns:xlink="http://www.w3.org/1999/xlink" x="0px" y="0px"
	 viewBox="0 0 1125 2436" style="enable-background:new 0 0 1125 2436;" xml:space="preserve">
<style type="text/css">
	.st0{fill-rule:evenodd;clip-rule:evenodd;fill:#053F7A;}
	.st1{fill-rule:evenodd;clip-rule:evenodd;fill:#68BF58;}
	.st2{fill-rule:evenodd;clip-rule:evenodd;fill:#FCBB20;}
</style>
<g id="Layer_1">
	<path class="st0" d="M230.58,918.6L126,1022.86l104.57,103.95c57.52,57.18,105.75,103.95,107.18,103.95
		c2.18,0,127.04-122.99,192.54-189.64l18.39-18.71L444.02,918.38c-57.56-57.22-105.6-104.03-106.76-104.03
		C336.11,814.35,288.1,861.26,230.58,918.6 M268.38,958.3l-62.62,62.3l64.77,64.25l64.76,64.25l62.62-62.31
		c34.44-34.27,62.62-63.52,62.62-65c0-3.38-123.61-125.81-127.02-125.81C332.12,896,302.81,924.03,268.38,958.3"/>
</g>
<g id="Layer_3">
	<path class="st0" d="M711.5,919.17l-104.27,104.28l104.24,103.62c57.33,56.99,105.62,103.62,107.31,103.62
		c2.69,0,181.29-176.33,202.23-199.67l8-8.91L924.47,918.19c-57.5-57.15-105.47-103.78-106.62-103.61
		C816.7,814.75,768.84,861.82,711.5,919.17 M749.77,958.18l-63.34,62.26l64.62,64.3l64.62,64.3l62.71-62.21
		c34.49-34.22,62.71-63.59,62.71-65.28c0-3.48-122.24-125.63-125.72-125.63C814.13,895.93,784.61,923.94,749.77,958.18"/>
</g>
<g id="Layer_4">
	<path class="st1" d="M338.03,982.79l-43.87,43.73l138.69,137.74C509.12,1240.02,573.38,1302,575.65,1302
		c2.27,0,38.81-34.49,81.19-76.64l77.06-76.64l-20.67-20.23l-20.67-20.23l-57.99,57.61l-57.99,57.61l-92.95-92.75
		c-51.13-51.01-95.58-95.9-98.77-99.75c-5.21-6.27-3.53-9.3,15.96-28.92l21.78-21.91l-20.35-20.54l-20.35-20.54L338.03,982.79"/>
</g>
<g id="Layer_2">
	<path class="st2" d="M504.43,823.51l-77.93,77.51l20.34,20.52l20.34,20.52l57.67-57.2l57.67-57.2l99.66,99.07l99.66,99.08
		l-22.7,22.27l-22.7,22.27l20.6,20.47l20.6,20.47l43.45-43.16l43.45-43.16l-140.07-139.5C647.45,808.77,583.96,746,583.4,746
		C582.83,746,547.3,780.88,504.43,823.51"/>
</g>
</svg>
